# xmcd CD database file
# Copyright (C) 1993-1998 Ti Kan
#
# Track frame offsets:
#	183
#	22455
#	45390
#	66078
#	87540
#	111895
#	134893
#	160100
#	183568
#	206843
#
# Disc length: 3056 seconds
#
# Revision: 1
# Processed by: cddbd v1.4b41PL1 Copyright (c) Steve Scherf et al.
# Submitted via: CDValet v3.31 - Copyright (c) 1997 Greg Leichner
#
DISCID=990bee0a
DTITLE=Abstrac' - Abstrac'
DYEAR=1900
DGENRE=
TTITLE0=Lookin' Out For #1
TTITLE1=I'll Be Your Friend (Featuring Bernard Bell)
TTITLE2=Sleaze
TTITLE3=Right And Hype
TTITLE4=Make Me Sweat
TTITLE5=Strategy
TTITLE6=Trust Me
TTITLE7=Buggin' Over You
TTITLE8=You're My King Of Guy
TTITLE9=You Are The Party (I Am The Fun)
EXTD=
EXTT0=
EXTT1=
EXTT2=
EXTT3=
EXTT4=
EXTT5=
EXTT6=
EXTT7=
EXTT8=
EXTT9=
PLAYORDER=
